<mxfile host="Electron" agent="Mozilla/5.0 (Windows NT 10.0; Win64; x64) AppleWebKit/537.36 (KHTML, like Gecko) draw.io/26.1.1 Chrome/132.0.6834.210 Electron/34.3.3 Safari/537.36" version="26.1.1">
  <diagram name="Page-1" id="mmop03w5HF1nB7FrRJUZ">
    <mxGraphModel dx="1434" dy="844" grid="1" gridSize="10" guides="1" tooltips="1" connect="1" arrows="1" fold="1" page="1" pageScale="1" pageWidth="850" pageHeight="1100" math="0" shadow="0">
      <root>
        <mxCell id="0" />
        <mxCell id="1" parent="0" />
        <mxCell id="cmvSdqmSYErEEShUGzy5-1" value="" style="shape=image;aspect=fixed;image=data:image/svg+xml,PHN2ZyB2aWV3Qm94PSIwIDAgNiA2IiB4bWxucz0iaHR0cDovL3d3dy53My5vcmcvMjAwMC9zdmciIHNoYXBlLXJlbmRlcmluZz0iY3Jpc3BFZGdlcyIgd2lkdGg9IjUwbW0iIGhlaWdodD0iNTBtbSI+PHJlY3QgeD0iMCIgeT0iMCIgd2lkdGg9IjYiIGhlaWdodD0iNiIgZmlsbD0iYmxhY2siPjwvcmVjdD48cmVjdCB3aWR0aD0iMSIgaGVpZ2h0PSIxIiB4PSIxIiB5PSIxIiBmaWxsPSJ3aGl0ZSI+PC9yZWN0PjxyZWN0IHdpZHRoPSIxLjUiIGhlaWdodD0iMSIgeD0iMyIgeT0iMSIgZmlsbD0id2hpdGUiPjwvcmVjdD48cmVjdCB3aWR0aD0iMSIgaGVpZ2h0PSIxIiB4PSI0IiB5PSIxIiBmaWxsPSJ3aGl0ZSI+PC9yZWN0PjxyZWN0IHdpZHRoPSIxIiBoZWlnaHQ9IjEuNSIgeD0iNCIgeT0iMSIgZmlsbD0id2hpdGUiPjwvcmVjdD48cmVjdCB3aWR0aD0iMSIgaGVpZ2h0PSIxIiB4PSIyIiB5PSIyIiBmaWxsPSJ3aGl0ZSI+PC9yZWN0PjxyZWN0IHdpZHRoPSIxIiBoZWlnaHQ9IjEiIHg9IjQiIHk9IjIiIGZpbGw9IndoaXRlIj48L3JlY3Q+PHJlY3Qgd2lkdGg9IjEiIGhlaWdodD0iMS41IiB4PSI0IiB5PSIyIiBmaWxsPSJ3aGl0ZSI+PC9yZWN0PjxyZWN0IHdpZHRoPSIxLjUiIGhlaWdodD0iMSIgeD0iMyIgeT0iMyIgZmlsbD0id2hpdGUiPjwvcmVjdD48cmVjdCB3aWR0aD0iMSIgaGVpZ2h0PSIxLjUiIHg9IjMiIHk9IjMiIGZpbGw9IndoaXRlIj48L3JlY3Q+PHJlY3Qgd2lkdGg9IjEiIGhlaWdodD0iMSIgeD0iNCIgeT0iMyIgZmlsbD0id2hpdGUiPjwvcmVjdD48cmVjdCB3aWR0aD0iMSIgaGVpZ2h0PSIxIiB4PSIzIiB5PSI0IiBmaWxsPSJ3aGl0ZSI+PC9yZWN0Pjwvc3ZnPg==;rotation=90;" vertex="1" parent="1">
          <mxGeometry x="510" y="110" width="150" height="150" as="geometry" />
        </mxCell>
        <mxCell id="cmvSdqmSYErEEShUGzy5-6" value="" style="shape=image;aspect=fixed;image=data:image/svg+xml,PHN2ZyB2aWV3Qm94PSIwIDAgNiA2IiB4bWxucz0iaHR0cDovL3d3dy53My5vcmcvMjAwMC9zdmciIHNoYXBlLXJlbmRlcmluZz0iY3Jpc3BFZGdlcyIgd2lkdGg9IjUwbW0iIGhlaWdodD0iNTBtbSI+PHJlY3QgeD0iMCIgeT0iMCIgd2lkdGg9IjYiIGhlaWdodD0iNiIgZmlsbD0iYmxhY2siPjwvcmVjdD48cmVjdCB3aWR0aD0iMSIgaGVpZ2h0PSIxIiB4PSIxIiB5PSIxIiBmaWxsPSJ3aGl0ZSI+PC9yZWN0PjxyZWN0IHdpZHRoPSIxLjUiIGhlaWdodD0iMSIgeD0iMyIgeT0iMSIgZmlsbD0id2hpdGUiPjwvcmVjdD48cmVjdCB3aWR0aD0iMSIgaGVpZ2h0PSIxIiB4PSI0IiB5PSIxIiBmaWxsPSJ3aGl0ZSI+PC9yZWN0PjxyZWN0IHdpZHRoPSIxIiBoZWlnaHQ9IjEuNSIgeD0iNCIgeT0iMSIgZmlsbD0id2hpdGUiPjwvcmVjdD48cmVjdCB3aWR0aD0iMSIgaGVpZ2h0PSIxIiB4PSIyIiB5PSIyIiBmaWxsPSJ3aGl0ZSI+PC9yZWN0PjxyZWN0IHdpZHRoPSIxIiBoZWlnaHQ9IjEiIHg9IjQiIHk9IjIiIGZpbGw9IndoaXRlIj48L3JlY3Q+PHJlY3Qgd2lkdGg9IjEiIGhlaWdodD0iMS41IiB4PSI0IiB5PSIyIiBmaWxsPSJ3aGl0ZSI+PC9yZWN0PjxyZWN0IHdpZHRoPSIxLjUiIGhlaWdodD0iMSIgeD0iMyIgeT0iMyIgZmlsbD0id2hpdGUiPjwvcmVjdD48cmVjdCB3aWR0aD0iMSIgaGVpZ2h0PSIxLjUiIHg9IjMiIHk9IjMiIGZpbGw9IndoaXRlIj48L3JlY3Q+PHJlY3Qgd2lkdGg9IjEiIGhlaWdodD0iMSIgeD0iNCIgeT0iMyIgZmlsbD0id2hpdGUiPjwvcmVjdD48cmVjdCB3aWR0aD0iMSIgaGVpZ2h0PSIxIiB4PSIzIiB5PSI0IiBmaWxsPSJ3aGl0ZSI+PC9yZWN0Pjwvc3ZnPg==;rotation=95;" vertex="1" parent="1">
          <mxGeometry x="510" y="360" width="150" height="150" as="geometry" />
        </mxCell>
        <mxCell id="cmvSdqmSYErEEShUGzy5-7" value="" style="shape=image;aspect=fixed;image=data:image/svg+xml,PHN2ZyB2aWV3Qm94PSIwIDAgNiA2IiB4bWxucz0iaHR0cDovL3d3dy53My5vcmcvMjAwMC9zdmciIHNoYXBlLXJlbmRlcmluZz0iY3Jpc3BFZGdlcyIgd2lkdGg9IjUwbW0iIGhlaWdodD0iNTBtbSI+PHJlY3QgeD0iMCIgeT0iMCIgd2lkdGg9IjYiIGhlaWdodD0iNiIgZmlsbD0iYmxhY2siPjwvcmVjdD48cmVjdCB3aWR0aD0iMSIgaGVpZ2h0PSIxIiB4PSIxIiB5PSIxIiBmaWxsPSJ3aGl0ZSI+PC9yZWN0PjxyZWN0IHdpZHRoPSIxLjUiIGhlaWdodD0iMSIgeD0iMyIgeT0iMSIgZmlsbD0id2hpdGUiPjwvcmVjdD48cmVjdCB3aWR0aD0iMSIgaGVpZ2h0PSIxIiB4PSI0IiB5PSIxIiBmaWxsPSJ3aGl0ZSI+PC9yZWN0PjxyZWN0IHdpZHRoPSIxIiBoZWlnaHQ9IjEuNSIgeD0iNCIgeT0iMSIgZmlsbD0id2hpdGUiPjwvcmVjdD48cmVjdCB3aWR0aD0iMSIgaGVpZ2h0PSIxIiB4PSIyIiB5PSIyIiBmaWxsPSJ3aGl0ZSI+PC9yZWN0PjxyZWN0IHdpZHRoPSIxIiBoZWlnaHQ9IjEiIHg9IjQiIHk9IjIiIGZpbGw9IndoaXRlIj48L3JlY3Q+PHJlY3Qgd2lkdGg9IjEiIGhlaWdodD0iMS41IiB4PSI0IiB5PSIyIiBmaWxsPSJ3aGl0ZSI+PC9yZWN0PjxyZWN0IHdpZHRoPSIxLjUiIGhlaWdodD0iMSIgeD0iMyIgeT0iMyIgZmlsbD0id2hpdGUiPjwvcmVjdD48cmVjdCB3aWR0aD0iMSIgaGVpZ2h0PSIxLjUiIHg9IjMiIHk9IjMiIGZpbGw9IndoaXRlIj48L3JlY3Q+PHJlY3Qgd2lkdGg9IjEiIGhlaWdodD0iMSIgeD0iNCIgeT0iMyIgZmlsbD0id2hpdGUiPjwvcmVjdD48cmVjdCB3aWR0aD0iMSIgaGVpZ2h0PSIxIiB4PSIzIiB5PSI0IiBmaWxsPSJ3aGl0ZSI+PC9yZWN0Pjwvc3ZnPg==;rotation=100;" vertex="1" parent="1">
          <mxGeometry x="510" y="600" width="150" height="150" as="geometry" />
        </mxCell>
        <mxCell id="cmvSdqmSYErEEShUGzy5-8" value="" style="shape=image;aspect=fixed;image=data:image/svg+xml,PHN2ZyB2aWV3Qm94PSIwIDAgNiA2IiB4bWxucz0iaHR0cDovL3d3dy53My5vcmcvMjAwMC9zdmciIHNoYXBlLXJlbmRlcmluZz0iY3Jpc3BFZGdlcyIgd2lkdGg9IjUwbW0iIGhlaWdodD0iNTBtbSI+PHJlY3QgeD0iMCIgeT0iMCIgd2lkdGg9IjYiIGhlaWdodD0iNiIgZmlsbD0iYmxhY2siPjwvcmVjdD48cmVjdCB3aWR0aD0iMSIgaGVpZ2h0PSIxIiB4PSIxIiB5PSIxIiBmaWxsPSJ3aGl0ZSI+PC9yZWN0PjxyZWN0IHdpZHRoPSIxLjUiIGhlaWdodD0iMSIgeD0iMyIgeT0iMSIgZmlsbD0id2hpdGUiPjwvcmVjdD48cmVjdCB3aWR0aD0iMSIgaGVpZ2h0PSIxIiB4PSI0IiB5PSIxIiBmaWxsPSJ3aGl0ZSI+PC9yZWN0PjxyZWN0IHdpZHRoPSIxIiBoZWlnaHQ9IjEuNSIgeD0iNCIgeT0iMSIgZmlsbD0id2hpdGUiPjwvcmVjdD48cmVjdCB3aWR0aD0iMSIgaGVpZ2h0PSIxIiB4PSIyIiB5PSIyIiBmaWxsPSJ3aGl0ZSI+PC9yZWN0PjxyZWN0IHdpZHRoPSIxIiBoZWlnaHQ9IjEiIHg9IjQiIHk9IjIiIGZpbGw9IndoaXRlIj48L3JlY3Q+PHJlY3Qgd2lkdGg9IjEiIGhlaWdodD0iMS41IiB4PSI0IiB5PSIyIiBmaWxsPSJ3aGl0ZSI+PC9yZWN0PjxyZWN0IHdpZHRoPSIxLjUiIGhlaWdodD0iMSIgeD0iMyIgeT0iMyIgZmlsbD0id2hpdGUiPjwvcmVjdD48cmVjdCB3aWR0aD0iMSIgaGVpZ2h0PSIxLjUiIHg9IjMiIHk9IjMiIGZpbGw9IndoaXRlIj48L3JlY3Q+PHJlY3Qgd2lkdGg9IjEiIGhlaWdodD0iMSIgeD0iNCIgeT0iMyIgZmlsbD0id2hpdGUiPjwvcmVjdD48cmVjdCB3aWR0aD0iMSIgaGVpZ2h0PSIxIiB4PSIzIiB5PSI0IiBmaWxsPSJ3aGl0ZSI+PC9yZWN0Pjwvc3ZnPg==;rotation=105;" vertex="1" parent="1">
          <mxGeometry x="510" y="840" width="150" height="150" as="geometry" />
        </mxCell>
        <mxCell id="cmvSdqmSYErEEShUGzy5-9" value="" style="shape=image;aspect=fixed;image=data:image/svg+xml,PHN2ZyB2aWV3Qm94PSIwIDAgNiA2IiB4bWxucz0iaHR0cDovL3d3dy53My5vcmcvMjAwMC9zdmciIHNoYXBlLXJlbmRlcmluZz0iY3Jpc3BFZGdlcyIgd2lkdGg9IjUwbW0iIGhlaWdodD0iNTBtbSI+PHJlY3QgeD0iMCIgeT0iMCIgd2lkdGg9IjYiIGhlaWdodD0iNiIgZmlsbD0iYmxhY2siPjwvcmVjdD48cmVjdCB3aWR0aD0iMSIgaGVpZ2h0PSIxIiB4PSIxIiB5PSIxIiBmaWxsPSJ3aGl0ZSI+PC9yZWN0PjxyZWN0IHdpZHRoPSIxLjUiIGhlaWdodD0iMSIgeD0iMyIgeT0iMSIgZmlsbD0id2hpdGUiPjwvcmVjdD48cmVjdCB3aWR0aD0iMSIgaGVpZ2h0PSIxIiB4PSI0IiB5PSIxIiBmaWxsPSJ3aGl0ZSI+PC9yZWN0PjxyZWN0IHdpZHRoPSIxIiBoZWlnaHQ9IjEuNSIgeD0iNCIgeT0iMSIgZmlsbD0id2hpdGUiPjwvcmVjdD48cmVjdCB3aWR0aD0iMSIgaGVpZ2h0PSIxIiB4PSIyIiB5PSIyIiBmaWxsPSJ3aGl0ZSI+PC9yZWN0PjxyZWN0IHdpZHRoPSIxIiBoZWlnaHQ9IjEiIHg9IjQiIHk9IjIiIGZpbGw9IndoaXRlIj48L3JlY3Q+PHJlY3Qgd2lkdGg9IjEiIGhlaWdodD0iMS41IiB4PSI0IiB5PSIyIiBmaWxsPSJ3aGl0ZSI+PC9yZWN0PjxyZWN0IHdpZHRoPSIxLjUiIGhlaWdodD0iMSIgeD0iMyIgeT0iMyIgZmlsbD0id2hpdGUiPjwvcmVjdD48cmVjdCB3aWR0aD0iMSIgaGVpZ2h0PSIxLjUiIHg9IjMiIHk9IjMiIGZpbGw9IndoaXRlIj48L3JlY3Q+PHJlY3Qgd2lkdGg9IjEiIGhlaWdodD0iMSIgeD0iNCIgeT0iMyIgZmlsbD0id2hpdGUiPjwvcmVjdD48cmVjdCB3aWR0aD0iMSIgaGVpZ2h0PSIxIiB4PSIzIiB5PSI0IiBmaWxsPSJ3aGl0ZSI+PC9yZWN0Pjwvc3ZnPg==;rotation=110;" vertex="1" parent="1">
          <mxGeometry x="210" y="110" width="150" height="150" as="geometry" />
        </mxCell>
        <mxCell id="cmvSdqmSYErEEShUGzy5-10" value="" style="shape=image;aspect=fixed;image=data:image/svg+xml,PHN2ZyB2aWV3Qm94PSIwIDAgNiA2IiB4bWxucz0iaHR0cDovL3d3dy53My5vcmcvMjAwMC9zdmciIHNoYXBlLXJlbmRlcmluZz0iY3Jpc3BFZGdlcyIgd2lkdGg9IjUwbW0iIGhlaWdodD0iNTBtbSI+PHJlY3QgeD0iMCIgeT0iMCIgd2lkdGg9IjYiIGhlaWdodD0iNiIgZmlsbD0iYmxhY2siPjwvcmVjdD48cmVjdCB3aWR0aD0iMSIgaGVpZ2h0PSIxIiB4PSIxIiB5PSIxIiBmaWxsPSJ3aGl0ZSI+PC9yZWN0PjxyZWN0IHdpZHRoPSIxLjUiIGhlaWdodD0iMSIgeD0iMyIgeT0iMSIgZmlsbD0id2hpdGUiPjwvcmVjdD48cmVjdCB3aWR0aD0iMSIgaGVpZ2h0PSIxIiB4PSI0IiB5PSIxIiBmaWxsPSJ3aGl0ZSI+PC9yZWN0PjxyZWN0IHdpZHRoPSIxIiBoZWlnaHQ9IjEuNSIgeD0iNCIgeT0iMSIgZmlsbD0id2hpdGUiPjwvcmVjdD48cmVjdCB3aWR0aD0iMSIgaGVpZ2h0PSIxIiB4PSIyIiB5PSIyIiBmaWxsPSJ3aGl0ZSI+PC9yZWN0PjxyZWN0IHdpZHRoPSIxIiBoZWlnaHQ9IjEiIHg9IjQiIHk9IjIiIGZpbGw9IndoaXRlIj48L3JlY3Q+PHJlY3Qgd2lkdGg9IjEiIGhlaWdodD0iMS41IiB4PSI0IiB5PSIyIiBmaWxsPSJ3aGl0ZSI+PC9yZWN0PjxyZWN0IHdpZHRoPSIxLjUiIGhlaWdodD0iMSIgeD0iMyIgeT0iMyIgZmlsbD0id2hpdGUiPjwvcmVjdD48cmVjdCB3aWR0aD0iMSIgaGVpZ2h0PSIxLjUiIHg9IjMiIHk9IjMiIGZpbGw9IndoaXRlIj48L3JlY3Q+PHJlY3Qgd2lkdGg9IjEiIGhlaWdodD0iMSIgeD0iNCIgeT0iMyIgZmlsbD0id2hpdGUiPjwvcmVjdD48cmVjdCB3aWR0aD0iMSIgaGVpZ2h0PSIxIiB4PSIzIiB5PSI0IiBmaWxsPSJ3aGl0ZSI+PC9yZWN0Pjwvc3ZnPg==;rotation=115;" vertex="1" parent="1">
          <mxGeometry x="210" y="360" width="150" height="150" as="geometry" />
        </mxCell>
        <mxCell id="cmvSdqmSYErEEShUGzy5-11" value="" style="shape=image;aspect=fixed;image=data:image/svg+xml,PHN2ZyB2aWV3Qm94PSIwIDAgNiA2IiB4bWxucz0iaHR0cDovL3d3dy53My5vcmcvMjAwMC9zdmciIHNoYXBlLXJlbmRlcmluZz0iY3Jpc3BFZGdlcyIgd2lkdGg9IjUwbW0iIGhlaWdodD0iNTBtbSI+PHJlY3QgeD0iMCIgeT0iMCIgd2lkdGg9IjYiIGhlaWdodD0iNiIgZmlsbD0iYmxhY2siPjwvcmVjdD48cmVjdCB3aWR0aD0iMSIgaGVpZ2h0PSIxIiB4PSIxIiB5PSIxIiBmaWxsPSJ3aGl0ZSI+PC9yZWN0PjxyZWN0IHdpZHRoPSIxLjUiIGhlaWdodD0iMSIgeD0iMyIgeT0iMSIgZmlsbD0id2hpdGUiPjwvcmVjdD48cmVjdCB3aWR0aD0iMSIgaGVpZ2h0PSIxIiB4PSI0IiB5PSIxIiBmaWxsPSJ3aGl0ZSI+PC9yZWN0PjxyZWN0IHdpZHRoPSIxIiBoZWlnaHQ9IjEuNSIgeD0iNCIgeT0iMSIgZmlsbD0id2hpdGUiPjwvcmVjdD48cmVjdCB3aWR0aD0iMSIgaGVpZ2h0PSIxIiB4PSIyIiB5PSIyIiBmaWxsPSJ3aGl0ZSI+PC9yZWN0PjxyZWN0IHdpZHRoPSIxIiBoZWlnaHQ9IjEiIHg9IjQiIHk9IjIiIGZpbGw9IndoaXRlIj48L3JlY3Q+PHJlY3Qgd2lkdGg9IjEiIGhlaWdodD0iMS41IiB4PSI0IiB5PSIyIiBmaWxsPSJ3aGl0ZSI+PC9yZWN0PjxyZWN0IHdpZHRoPSIxLjUiIGhlaWdodD0iMSIgeD0iMyIgeT0iMyIgZmlsbD0id2hpdGUiPjwvcmVjdD48cmVjdCB3aWR0aD0iMSIgaGVpZ2h0PSIxLjUiIHg9IjMiIHk9IjMiIGZpbGw9IndoaXRlIj48L3JlY3Q+PHJlY3Qgd2lkdGg9IjEiIGhlaWdodD0iMSIgeD0iNCIgeT0iMyIgZmlsbD0id2hpdGUiPjwvcmVjdD48cmVjdCB3aWR0aD0iMSIgaGVpZ2h0PSIxIiB4PSIzIiB5PSI0IiBmaWxsPSJ3aGl0ZSI+PC9yZWN0Pjwvc3ZnPg==;rotation=120;" vertex="1" parent="1">
          <mxGeometry x="200" y="600" width="150" height="150" as="geometry" />
        </mxCell>
        <mxCell id="cmvSdqmSYErEEShUGzy5-12" value="" style="shape=image;aspect=fixed;image=data:image/svg+xml,PHN2ZyB2aWV3Qm94PSIwIDAgNiA2IiB4bWxucz0iaHR0cDovL3d3dy53My5vcmcvMjAwMC9zdmciIHNoYXBlLXJlbmRlcmluZz0iY3Jpc3BFZGdlcyIgd2lkdGg9IjUwbW0iIGhlaWdodD0iNTBtbSI+PHJlY3QgeD0iMCIgeT0iMCIgd2lkdGg9IjYiIGhlaWdodD0iNiIgZmlsbD0iYmxhY2siPjwvcmVjdD48cmVjdCB3aWR0aD0iMSIgaGVpZ2h0PSIxIiB4PSIxIiB5PSIxIiBmaWxsPSJ3aGl0ZSI+PC9yZWN0PjxyZWN0IHdpZHRoPSIxLjUiIGhlaWdodD0iMSIgeD0iMyIgeT0iMSIgZmlsbD0id2hpdGUiPjwvcmVjdD48cmVjdCB3aWR0aD0iMSIgaGVpZ2h0PSIxIiB4PSI0IiB5PSIxIiBmaWxsPSJ3aGl0ZSI+PC9yZWN0PjxyZWN0IHdpZHRoPSIxIiBoZWlnaHQ9IjEuNSIgeD0iNCIgeT0iMSIgZmlsbD0id2hpdGUiPjwvcmVjdD48cmVjdCB3aWR0aD0iMSIgaGVpZ2h0PSIxIiB4PSIyIiB5PSIyIiBmaWxsPSJ3aGl0ZSI+PC9yZWN0PjxyZWN0IHdpZHRoPSIxIiBoZWlnaHQ9IjEiIHg9IjQiIHk9IjIiIGZpbGw9IndoaXRlIj48L3JlY3Q+PHJlY3Qgd2lkdGg9IjEiIGhlaWdodD0iMS41IiB4PSI0IiB5PSIyIiBmaWxsPSJ3aGl0ZSI+PC9yZWN0PjxyZWN0IHdpZHRoPSIxLjUiIGhlaWdodD0iMSIgeD0iMyIgeT0iMyIgZmlsbD0id2hpdGUiPjwvcmVjdD48cmVjdCB3aWR0aD0iMSIgaGVpZ2h0PSIxLjUiIHg9IjMiIHk9IjMiIGZpbGw9IndoaXRlIj48L3JlY3Q+PHJlY3Qgd2lkdGg9IjEiIGhlaWdodD0iMSIgeD0iNCIgeT0iMyIgZmlsbD0id2hpdGUiPjwvcmVjdD48cmVjdCB3aWR0aD0iMSIgaGVpZ2h0PSIxIiB4PSIzIiB5PSI0IiBmaWxsPSJ3aGl0ZSI+PC9yZWN0Pjwvc3ZnPg==;rotation=125;" vertex="1" parent="1">
          <mxGeometry x="200" y="840" width="150" height="150" as="geometry" />
        </mxCell>
      </root>
    </mxGraphModel>
  </diagram>
</mxfile>
